<?xml version="1.0" standalone="no"?>
<!DOCTYPE svg PUBLIC "-//W3C//DTD SVG 20010904//EN"
 "http://www.w3.org/TR/2001/REC-SVG-20010904/DTD/svg10.dtd">
<svg version="1.0" xmlns="http://www.w3.org/2000/svg"
 width="512.000000pt" height="512.000000pt" viewBox="0 0 512.000000 512.000000"
 preserveAspectRatio="xMidYMid meet">

<g transform="translate(0.000000,512.000000) scale(0.100000,-0.100000)"
fill="#000000" stroke="none">
<path d="M3088 5099 c-69 -36 -78 -70 -78 -284 0 -166 2 -190 20 -225 23 -45
80 -80 130 -80 50 0 107 35 130 80 18 35 20 59 20 225 0 166 -2 190 -20 225
-37 73 -127 99 -202 59z"/>
<path d="M2126 4691 c-45 -30 -66 -70 -66 -127 0 -65 20 -93 167 -236 79 -76
121 -110 149 -118 117 -35 226 84 179 195 -16 40 -192 227 -259 276 -48 36
-124 40 -170 10z"/>
<path d="M4024 4681 c-21 -15 -87 -78 -146 -138 -76 -79 -110 -121 -118 -149
-35 -117 84 -226 195 -179 40 16 227 192 276 259 52 71 35 169 -37 217 -46 30
-122 26 -170 -10z"/>
<path d="M2805 4196 c-41 -18 -82 -68 -94 -114 -5 -20 -33 -127 -60 -236 -94
-369 -247 -654 -470 -877 -129 -129 -278 -225 -376 -244 -28 -6 -32 -3 -59 50
-33 63 -112 140 -182 174 -98 49 -117 51 -642 51 -474 0 -494 -1 -532 -20 -26
-13 -47 -34 -60 -60 -20 -39 -20 -56 -20 -1420 0 -1364 0 -1381 20 -1420 13
-26 34 -47 60 -60 38 -19 58 -20 532 -20 380 0 504 3 543 14 110 29 209 99
266 186 18 28 37 50 42 50 6 0 140 -43 298 -95 484 -160 439 -155 1325 -155
429 0 712 4 745 10 186 35 330 184 361 374 10 62 4 140 -17 211 -5 17 4 24 58
48 253 110 342 425 186 661 l-31 46 31 46 c56 84 74 148 74 254 0 106 -18 170
-74 254 l-31 46 31 46 c179 272 29 634 -288 694 -32 6 -239 10 -502 10 -247 0
-449 2 -449 4 0 3 11 47 25 98 80 299 119 749 80 933 -47 225 -235 413 -460
460 -89 19 -289 19 -330 1z m328 -314 c57 -26 123 -91 151 -151 19 -42 21 -61
20 -241 -1 -206 -16 -336 -60 -530 -27 -121 -37 -156 -60 -216 l-17 -44 -169
0 c-149 0 -173 -2 -208 -20 -45 -23 -80 -80 -80 -130 0 -50 35 -107 80 -130
38 -20 57 -20 820 -20 763 0 782 0 820 -20 45 -23 80 -80 80 -130 0 -50 -35
-107 -80 -130 -35 -18 -59 -20 -220 -20 -210 0 -244 -10 -280 -80 -25 -50 -25
-90 0 -140 36 -70 70 -80 280 -80 210 0 244 -10 280 -80 25 -50 25 -90 0 -140
-36 -70 -70 -80 -280 -80 -161 0 -185 -2 -220 -20 -45 -23 -80 -80 -80 -130 0
-50 35 -107 80 -130 35 -18 59 -20 220 -20 210 0 244 -10 280 -80 25 -50 25
-90 0 -140 -36 -70 -70 -80 -280 -80 -161 0 -185 -2 -220 -20 -45 -23 -80 -80
-80 -130 0 -76 74 -150 150 -150 76 0 150 -74 150 -150 0 -50 -35 -107 -81
-130 -39 -21 -50 -21 -767 -18 -652 3 -736 6 -813 22 -47 9 -231 66 -410 125
l-324 107 -3 930 -2 930 69 17 c155 40 322 142 474 287 177 169 303 343 417
575 79 161 117 265 166 455 19 74 37 141 40 149 6 19 98 9 157 -17z m-1703
-1202 c26 -13 47 -34 60 -60 20 -39 20 -57 20 -1120 0 -1063 0 -1081 -20
-1120 -13 -26 -34 -47 -60 -60 -37 -19 -58 -20 -430 -20 l-390 0 0 1200 0
1200 390 0 c372 0 393 -1 430 -20z"/>
<path d="M988 879 c-43 -22 -78 -81 -78 -129 0 -76 74 -150 150 -150 76 0 150
74 150 150 0 50 -35 107 -80 130 -49 25 -94 25 -142 -1z"/>
</g>
</svg>
